<?xml version="1.0" encoding="iso-8859-1"?>
<!-- Generator: Adobe Illustrator 19.0.0, SVG Export Plug-In . SVG Version: 6.00 Build 0)  -->
<svg version="1.1" id="Layer_1" xmlns="http://www.w3.org/2000/svg" xmlns:xlink="http://www.w3.org/1999/xlink" x="0px" y="0px"
	 viewBox="0 0 512 512" style="enable-background:new 0 0 512 512;" xml:space="preserve">
<circle style="fill:#366796;" cx="256" cy="256" r="256"/>
<path style="fill:#273B7A;" d="M142.27,363.218l146.677,146.677c114.957-14.77,206.039-105.787,220.915-220.71L373.712,153.035
	L142.27,363.218z"/>
<circle style="fill:#FF5419;" cx="256" cy="256" r="156.444"/>
<path style="fill:#E03A00;" d="M99.562,256.574c0.31,86.137,70.227,155.87,156.438,155.87c86.209,0,156.127-69.732,156.438-155.87
	L99.562,256.574L99.562,256.574z"/>
<path style="fill:#FFEDB5;" d="M232.189,250.778l53.743-53.741c6.513-6.513,6.513-17.072,0-23.586l0,0
	c-6.513-6.513-17.074-6.513-23.586,0l-70.758,70.758c-6.513,6.513-6.513,17.072,0,23.587l70.758,70.758
	c6.513,6.513,17.074,6.513,23.586,0l0,0c6.513-6.513,6.513-17.072,0-23.586l-53.743-53.743
	C229.305,258.338,229.305,253.662,232.189,250.778z"/>
<path style="fill:#FEE187;" d="M232.189,261.222c-1.295-1.295-1.976-2.955-2.108-4.648H186.73c0.14,4.075,1.746,8.108,4.858,11.217
	l70.758,70.758c6.513,6.513,17.074,6.513,23.586,0c6.513-6.513,6.513-17.072,0-23.586L232.189,261.222z"/>
<g>
</g>
<g>
</g>
<g>
</g>
<g>
</g>
<g>
</g>
<g>
</g>
<g>
</g>
<g>
</g>
<g>
</g>
<g>
</g>
<g>
</g>
<g>
</g>
<g>
</g>
<g>
</g>
<g>
</g>
</svg>
